<svg xmlns="http://www.w3.org/2000/svg" xmlns:xlink="http://www.w3.org/1999/xlink" width="500" zoomAndPan="magnify" viewBox="0 0 375 374.999991" height="500" preserveAspectRatio="xMidYMid meet" version="1.0"><defs><clipPath id="4d9d43ccfe"><path d="M 49.734375 99.097656 L 326.621094 99.097656 L 326.621094 331.5 L 49.734375 331.5 Z M 49.734375 99.097656 " clip-rule="nonzero"/></clipPath><clipPath id="a51f736293"><path d="M 94.269531 99.097656 L 282.230469 99.097656 C 291.667969 99.097656 299.632812 106.105469 300.832031 115.460938 L 326.476562 315.132812 C 327.011719 319.273438 325.734375 323.441406 322.980469 326.570312 C 320.222656 329.703125 316.253906 331.5 312.082031 331.5 L 64.417969 331.5 C 60.246094 331.5 56.277344 329.703125 53.519531 326.570312 C 50.765625 323.441406 49.492188 319.273438 50.023438 315.132812 L 75.667969 115.460938 C 76.867188 106.105469 84.832031 99.097656 94.269531 99.097656 Z M 94.269531 99.097656 " clip-rule="nonzero"/></clipPath><clipPath id="22cd93f9e0"><path d="M 0.734375 0.0976562 L 277.621094 0.0976562 L 277.621094 232.5 L 0.734375 232.5 Z M 0.734375 0.0976562 " clip-rule="nonzero"/></clipPath><clipPath id="bd5c0c27d5"><path d="M 45.269531 0.0976562 L 233.230469 0.0976562 C 242.667969 0.0976562 250.632812 7.105469 251.832031 16.460938 L 277.476562 216.132812 C 278.011719 220.273438 276.734375 224.441406 273.980469 227.570312 C 271.222656 230.703125 267.253906 232.5 263.082031 232.5 L 15.417969 232.5 C 11.246094 232.5 7.277344 230.703125 4.519531 227.570312 C 1.765625 224.441406 0.492188 220.273438 1.023438 216.132812 L 26.667969 16.460938 C 27.867188 7.105469 35.832031 0.0976562 45.269531 0.0976562 Z M 45.269531 0.0976562 " clip-rule="nonzero"/></clipPath><clipPath id="4f5f6918fc"><rect x="0" width="278" y="0" height="233"/></clipPath><clipPath id="b14ae4394a"><path d="M 44 12.382812 L 331 12.382812 L 331 346.132812 L 44 346.132812 Z M 44 12.382812 " clip-rule="nonzero"/></clipPath></defs><rect x="-37.5" width="450" fill="#ffffff" y="-37.499999" height="449.999989" fill-opacity="1"/><rect x="-37.5" width="450" fill="#ffffff" y="-37.499999" height="449.999989" fill-opacity="1"/><g clip-path="url(#4d9d43ccfe)"><g clip-path="url(#a51f736293)"><g transform="matrix(1, 0, 0, 1, 49, 99)"><g clip-path="url(#4f5f6918fc)"><g clip-path="url(#22cd93f9e0)"><g clip-path="url(#bd5c0c27d5)"><path fill="#000000" d="M -1.082031 0.0976562 L 279.4375 0.0976562 L 279.4375 232.5 L -1.082031 232.5 Z M -1.082031 0.0976562 " fill-opacity="1" fill-rule="nonzero"/></g></g></g></g></g></g><g clip-path="url(#b14ae4394a)"><path fill="#ffffff" d="M 330.601562 315.632812 L 310.832031 100.554688 C 310.449219 96.382812 306.949219 93.1875 302.757812 93.1875 L 246.203125 93.1875 L 246.203125 71.058594 C 246.203125 38.703125 219.882812 12.382812 187.53125 12.382812 C 155.175781 12.382812 128.855469 38.703125 128.855469 71.058594 L 128.855469 93.1875 L 72.300781 93.1875 C 68.109375 93.1875 64.609375 96.382812 64.226562 100.554688 L 44.457031 315.632812 C 43.71875 323.671875 46.203125 331.070312 51.640625 337.03125 C 57.082031 342.996094 64.222656 346.144531 72.292969 346.144531 L 302.765625 346.144531 C 310.835938 346.144531 317.980469 342.996094 323.417969 337.03125 C 328.855469 331.070312 331.339844 323.671875 330.601562 315.632812 Z M 145.070312 71.058594 C 145.070312 47.644531 164.117188 28.597656 187.53125 28.597656 C 210.941406 28.597656 229.988281 47.644531 229.988281 71.058594 L 229.988281 93.1875 L 145.070312 93.1875 Z M 311.4375 326.101562 C 309.089844 328.679688 306.25 329.929688 302.765625 329.929688 L 72.292969 329.929688 C 68.808594 329.929688 65.972656 328.679688 63.621094 326.101562 C 61.273438 323.527344 60.285156 320.589844 60.605469 317.117188 L 79.695312 109.402344 L 128.855469 109.402344 L 128.855469 126.988281 C 128.855469 131.464844 132.488281 135.09375 136.964844 135.09375 C 141.441406 135.09375 145.070312 131.464844 145.070312 126.988281 L 145.070312 109.402344 L 229.988281 109.402344 L 229.988281 126.988281 C 229.988281 131.464844 233.617188 135.09375 238.097656 135.09375 C 242.574219 135.09375 246.203125 131.464844 246.203125 126.988281 L 246.203125 109.402344 L 295.363281 109.402344 L 314.457031 317.117188 C 314.773438 320.589844 313.789062 323.527344 311.4375 326.101562 Z M 311.4375 326.101562 " fill-opacity="1" fill-rule="nonzero"/></g></svg>