<svg xmlns="http://www.w3.org/2000/svg" xmlns:xlink="http://www.w3.org/1999/xlink" width="500" zoomAndPan="magnify" viewBox="0 0 375 374.999991" height="500" preserveAspectRatio="xMidYMid meet" version="1.0"><defs><clipPath id="4f1e455809"><path d="M 53.65625 53.65625 L 321.34375 53.65625 L 321.34375 321.34375 L 53.65625 321.34375 Z M 53.65625 53.65625 " clip-rule="nonzero"/></clipPath><clipPath id="6f7e507364"><path d="M 187.5 53.65625 C 113.582031 53.65625 53.65625 113.582031 53.65625 187.5 C 53.65625 261.417969 113.582031 321.34375 187.5 321.34375 C 261.417969 321.34375 321.34375 261.417969 321.34375 187.5 C 321.34375 113.582031 261.417969 53.65625 187.5 53.65625 Z M 187.5 53.65625 " clip-rule="nonzero"/></clipPath><clipPath id="c66e4c6699"><path d="M 0.65625 0.65625 L 268.34375 0.65625 L 268.34375 268.34375 L 0.65625 268.34375 Z M 0.65625 0.65625 " clip-rule="nonzero"/></clipPath><clipPath id="062032d8f2"><path d="M 134.5 0.65625 C 60.582031 0.65625 0.65625 60.582031 0.65625 134.5 C 0.65625 208.417969 60.582031 268.34375 134.5 268.34375 C 208.417969 268.34375 268.34375 208.417969 268.34375 134.5 C 268.34375 60.582031 208.417969 0.65625 134.5 0.65625 Z M 134.5 0.65625 " clip-rule="nonzero"/></clipPath><clipPath id="085475f870"><rect x="0" width="269" y="0" height="269"/></clipPath><clipPath id="1acf0e953e"><path d="M 45.972656 45.972656 L 328.722656 45.972656 L 328.722656 328.722656 L 45.972656 328.722656 Z M 45.972656 45.972656 " clip-rule="nonzero"/></clipPath></defs><rect x="-37.5" width="450" fill="#ffffff" y="-37.499999" height="449.999989" fill-opacity="1"/><rect x="-37.5" width="450" fill="#ffffff" y="-37.499999" height="449.999989" fill-opacity="1"/><g clip-path="url(#4f1e455809)"><g clip-path="url(#6f7e507364)"><g transform="matrix(1, 0, 0, 1, 53, 53)"><g clip-path="url(#085475f870)"><g clip-path="url(#c66e4c6699)"><g clip-path="url(#062032d8f2)"><path fill="#000000" d="M 0.65625 0.65625 L 268.34375 0.65625 L 268.34375 268.34375 L 0.65625 268.34375 Z M 0.65625 0.65625 " fill-opacity="1" fill-rule="nonzero"/></g></g></g></g></g></g><g clip-path="url(#1acf0e953e)"><path fill="#ffffff" d="M 187.492188 229.214844 C 151.132812 229.214844 121.550781 199.636719 121.550781 163.273438 C 121.550781 126.914062 151.132812 97.332031 187.492188 97.332031 C 223.851562 97.332031 253.433594 126.914062 253.433594 163.273438 C 253.433594 199.636719 223.851562 229.214844 187.492188 229.214844 Z M 187.492188 106.414062 C 156.140625 106.414062 130.632812 131.921875 130.632812 163.273438 C 130.632812 194.628906 156.140625 220.132812 187.492188 220.132812 C 218.84375 220.132812 244.351562 194.628906 244.351562 163.273438 C 244.351562 131.921875 218.84375 106.414062 187.492188 106.414062 Z M 287.5625 87.421875 C 260.832031 60.695312 225.292969 45.972656 187.492188 45.972656 C 149.691406 45.972656 114.152344 60.695312 87.421875 87.421875 C 60.695312 114.152344 45.972656 149.691406 45.972656 187.492188 C 45.972656 225.292969 60.695312 260.832031 87.421875 287.5625 C 114.152344 314.292969 149.691406 329.011719 187.492188 329.011719 C 225.292969 329.011719 260.832031 314.292969 287.5625 287.5625 C 314.292969 260.832031 329.011719 225.292969 329.011719 187.492188 C 329.011719 149.691406 314.292969 114.152344 287.5625 87.421875 Z M 93.84375 93.84375 C 118.859375 68.832031 152.117188 55.054688 187.492188 55.054688 C 222.867188 55.054688 256.125 68.832031 281.140625 93.84375 C 306.152344 118.859375 319.929688 152.117188 319.929688 187.492188 C 319.929688 216.898438 310.402344 244.839844 292.820312 267.800781 C 278.828125 248.234375 256.484375 236.675781 232.21875 236.675781 L 142.765625 236.675781 C 118.5 236.675781 96.15625 248.234375 82.164062 267.800781 C 64.582031 244.839844 55.054688 216.898438 55.054688 187.492188 C 55.054688 152.117188 68.832031 118.859375 93.84375 93.84375 Z M 187.492188 319.929688 C 152.117188 319.929688 118.859375 306.152344 93.84375 281.140625 C 91.882812 279.175781 89.996094 277.15625 88.171875 275.09375 C 100.335938 256.703125 120.640625 245.757812 142.765625 245.757812 L 232.21875 245.757812 C 254.34375 245.757812 274.648438 256.703125 286.8125 275.09375 C 284.988281 277.15625 283.105469 279.175781 281.140625 281.140625 C 256.125 306.152344 222.867188 319.929688 187.492188 319.929688 Z M 187.492188 319.929688 " fill-opacity="1" fill-rule="nonzero"/></g></svg>