<svg xmlns="http://www.w3.org/2000/svg" xmlns:xlink="http://www.w3.org/1999/xlink" width="500" zoomAndPan="magnify" viewBox="0 0 375 374.999991" height="500" preserveAspectRatio="xMidYMid meet" version="1.0"><defs><clipPath id="ae84ce2cbb"><path d="M 91.421875 139.515625 L 285.835938 139.515625 L 285.835938 303.117188 L 91.421875 303.117188 Z M 91.421875 139.515625 " clip-rule="nonzero"/></clipPath><clipPath id="465767e450"><path d="M 0.421875 0.515625 L 194.835938 0.515625 L 194.835938 164.117188 L 0.421875 164.117188 Z M 0.421875 0.515625 " clip-rule="nonzero"/></clipPath><clipPath id="bd77a4c279"><rect x="0" width="195" y="0" height="165"/></clipPath><clipPath id="28dda6ea13"><path d="M 90.292969 71.242188 L 284.886719 71.242188 L 284.886719 216.058594 L 90.292969 216.058594 Z M 90.292969 71.242188 " clip-rule="nonzero"/></clipPath><clipPath id="bca8a55920"><path d="M 162.699219 71.242188 L 212.300781 71.242188 C 252.289062 71.242188 284.707031 103.660156 284.707031 143.648438 C 284.707031 183.640625 252.289062 216.058594 212.300781 216.058594 L 162.699219 216.058594 C 122.710938 216.058594 90.292969 183.640625 90.292969 143.648438 C 90.292969 103.660156 122.710938 71.242188 162.699219 71.242188 Z M 162.699219 71.242188 " clip-rule="nonzero"/></clipPath><clipPath id="e10b97f946"><path d="M 0.292969 0.242188 L 194.878906 0.242188 L 194.878906 145.058594 L 0.292969 145.058594 Z M 0.292969 0.242188 " clip-rule="nonzero"/></clipPath><clipPath id="7a3570c977"><path d="M 72.699219 0.242188 L 122.300781 0.242188 C 162.289062 0.242188 194.707031 32.660156 194.707031 72.648438 C 194.707031 112.640625 162.289062 145.058594 122.300781 145.058594 L 72.699219 145.058594 C 32.710938 145.058594 0.292969 112.640625 0.292969 72.648438 C 0.292969 32.660156 32.710938 0.242188 72.699219 0.242188 Z M 72.699219 0.242188 " clip-rule="nonzero"/></clipPath><clipPath id="c9edb6fa51"><rect x="0" width="195" y="0" height="146"/></clipPath><clipPath id="fecd8f110b"><path d="M 151.140625 288.089844 L 218.429688 288.089844 L 218.429688 331.921875 L 151.140625 331.921875 Z M 151.140625 288.089844 " clip-rule="nonzero"/></clipPath><clipPath id="70dd811f61"><path d="M 173.058594 288.089844 L 196.417969 288.089844 C 202.230469 288.089844 207.804688 290.398438 211.914062 294.507812 C 216.023438 298.617188 218.332031 304.191406 218.332031 310.003906 C 218.332031 315.816406 216.023438 321.390625 211.914062 325.503906 C 207.804688 329.613281 202.230469 331.921875 196.417969 331.921875 L 173.058594 331.921875 C 167.246094 331.921875 161.671875 329.613281 157.558594 325.503906 C 153.449219 321.390625 151.140625 315.816406 151.140625 310.003906 C 151.140625 304.191406 153.449219 298.617188 157.558594 294.507812 C 161.671875 290.398438 167.246094 288.089844 173.058594 288.089844 Z M 173.058594 288.089844 " clip-rule="nonzero"/></clipPath><clipPath id="d41a9b078a"><path d="M 0.140625 0.0898438 L 67.398438 0.0898438 L 67.398438 43.921875 L 0.140625 43.921875 Z M 0.140625 0.0898438 " clip-rule="nonzero"/></clipPath><clipPath id="6fa87eb549"><path d="M 22.058594 0.0898438 L 45.417969 0.0898438 C 51.230469 0.0898438 56.804688 2.398438 60.914062 6.507812 C 65.023438 10.617188 67.332031 16.191406 67.332031 22.003906 C 67.332031 27.816406 65.023438 33.390625 60.914062 37.503906 C 56.804688 41.613281 51.230469 43.921875 45.417969 43.921875 L 22.058594 43.921875 C 16.246094 43.921875 10.671875 41.613281 6.558594 37.503906 C 2.449219 33.390625 0.140625 27.816406 0.140625 22.003906 C 0.140625 16.191406 2.449219 10.617188 6.558594 6.507812 C 10.671875 2.398438 16.246094 0.0898438 22.058594 0.0898438 Z M 22.058594 0.0898438 " clip-rule="nonzero"/></clipPath><clipPath id="798f285544"><rect x="0" width="68" y="0" height="44"/></clipPath><clipPath id="cd4aa29bf3"><path d="M 75.964844 259.285156 L 111.597656 259.285156 L 111.597656 303.128906 L 75.964844 303.128906 Z M 75.964844 259.285156 " clip-rule="nonzero"/></clipPath><clipPath id="7b5df15feb"><path d="M 93.78125 259.285156 C 98.507812 259.285156 103.039062 261.164062 106.378906 264.503906 C 109.71875 267.84375 111.597656 272.375 111.597656 277.101562 L 111.597656 285.304688 C 111.597656 290.027344 109.71875 294.558594 106.378906 297.902344 C 103.039062 301.242188 98.507812 303.117188 93.78125 303.117188 C 89.054688 303.117188 84.523438 301.242188 81.183594 297.902344 C 77.84375 294.558594 75.964844 290.027344 75.964844 285.304688 L 75.964844 277.101562 C 75.964844 272.375 77.84375 267.84375 81.183594 264.503906 C 84.523438 261.164062 89.054688 259.285156 93.78125 259.285156 Z M 93.78125 259.285156 " clip-rule="nonzero"/></clipPath><clipPath id="cc5e56b838"><path d="M 0.964844 0.285156 L 36.597656 0.285156 L 36.597656 44.121094 L 0.964844 44.121094 Z M 0.964844 0.285156 " clip-rule="nonzero"/></clipPath><clipPath id="8e93cbbcc4"><path d="M 18.78125 0.285156 C 23.507812 0.285156 28.039062 2.164062 31.378906 5.503906 C 34.71875 8.84375 36.597656 13.375 36.597656 18.101562 L 36.597656 26.304688 C 36.597656 31.027344 34.71875 35.558594 31.378906 38.902344 C 28.039062 42.242188 23.507812 44.117188 18.78125 44.117188 C 14.054688 44.117188 9.523438 42.242188 6.183594 38.902344 C 2.84375 35.558594 0.964844 31.027344 0.964844 26.304688 L 0.964844 18.101562 C 0.964844 13.375 2.84375 8.84375 6.183594 5.503906 C 9.523438 2.164062 14.054688 0.285156 18.78125 0.285156 Z M 18.78125 0.285156 " clip-rule="nonzero"/></clipPath><clipPath id="9026f086c5"><rect x="0" width="37" y="0" height="45"/></clipPath><clipPath id="93ebb59ff3"><path d="M 268.019531 259.285156 L 299.324219 259.285156 L 299.324219 297.929688 L 268.019531 297.929688 Z M 268.019531 259.285156 " clip-rule="nonzero"/></clipPath><clipPath id="6bf70b1b9c"><path d="M 283.671875 259.285156 C 287.824219 259.285156 291.804688 260.933594 294.742188 263.871094 C 297.675781 266.804688 299.324219 270.789062 299.324219 274.9375 L 299.324219 282.207031 C 299.324219 286.355469 297.675781 290.339844 294.742188 293.273438 C 291.804688 296.207031 287.824219 297.859375 283.671875 297.859375 C 279.519531 297.859375 275.539062 296.207031 272.605469 293.273438 C 269.667969 290.339844 268.019531 286.355469 268.019531 282.207031 L 268.019531 274.9375 C 268.019531 270.789062 269.667969 266.804688 272.605469 263.871094 C 275.539062 260.933594 279.519531 259.285156 283.671875 259.285156 Z M 283.671875 259.285156 " clip-rule="nonzero"/></clipPath><clipPath id="a8e81027b5"><path d="M 0.0195312 0.285156 L 31.324219 0.285156 L 31.324219 38.929688 L 0.0195312 38.929688 Z M 0.0195312 0.285156 " clip-rule="nonzero"/></clipPath><clipPath id="7e7e5db5cb"><path d="M 15.671875 0.285156 C 19.824219 0.285156 23.804688 1.933594 26.742188 4.871094 C 29.675781 7.804688 31.324219 11.789062 31.324219 15.9375 L 31.324219 23.207031 C 31.324219 27.355469 29.675781 31.339844 26.742188 34.273438 C 23.804688 37.207031 19.824219 38.859375 15.671875 38.859375 C 11.519531 38.859375 7.539062 37.207031 4.605469 34.273438 C 1.667969 31.339844 0.0195312 27.355469 0.0195312 23.207031 L 0.0195312 15.9375 C 0.0195312 11.789062 1.667969 7.804688 4.605469 4.871094 C 7.539062 1.933594 11.519531 0.285156 15.671875 0.285156 Z M 15.671875 0.285156 " clip-rule="nonzero"/></clipPath><clipPath id="9676d764d5"><rect x="0" width="32" y="0" height="39"/></clipPath><clipPath id="6fe5fe5a79"><path d="M 170.8125 37.5 L 206.441406 37.5 L 206.441406 81.339844 L 170.8125 81.339844 Z M 170.8125 37.5 " clip-rule="nonzero"/></clipPath><clipPath id="906d35bbd1"><path d="M 188.628906 37.5 C 193.351562 37.5 197.882812 39.375 201.222656 42.71875 C 204.566406 46.058594 206.441406 50.589844 206.441406 55.316406 L 206.441406 63.519531 C 206.441406 68.242188 204.566406 72.773438 201.222656 76.113281 C 197.882812 79.457031 193.351562 81.332031 188.628906 81.332031 C 183.902344 81.332031 179.371094 79.457031 176.03125 76.113281 C 172.6875 72.773438 170.8125 68.242188 170.8125 63.519531 L 170.8125 55.316406 C 170.8125 50.589844 172.6875 46.058594 176.03125 42.71875 C 179.371094 39.375 183.902344 37.5 188.628906 37.5 Z M 188.628906 37.5 " clip-rule="nonzero"/></clipPath><clipPath id="7dc336b3ca"><path d="M 0.8125 0.5 L 36.441406 0.5 L 36.441406 44.339844 L 0.8125 44.339844 Z M 0.8125 0.5 " clip-rule="nonzero"/></clipPath><clipPath id="0c823e1f32"><path d="M 18.628906 0.5 C 23.351562 0.5 27.882812 2.375 31.222656 5.71875 C 34.566406 9.058594 36.441406 13.589844 36.441406 18.316406 L 36.441406 26.519531 C 36.441406 31.242188 34.566406 35.773438 31.222656 39.113281 C 27.882812 42.457031 23.351562 44.332031 18.628906 44.332031 C 13.902344 44.332031 9.371094 42.457031 6.03125 39.113281 C 2.6875 35.773438 0.8125 31.242188 0.8125 26.519531 L 0.8125 18.316406 C 0.8125 13.589844 2.6875 9.058594 6.03125 5.71875 C 9.371094 2.375 13.902344 0.5 18.628906 0.5 Z M 18.628906 0.5 " clip-rule="nonzero"/></clipPath><clipPath id="c0e017d495"><rect x="0" width="37" y="0" height="45"/></clipPath><clipPath id="a9c95cc08e"><path d="M 58 28.046875 L 316.695312 28.046875 L 316.695312 346.796875 L 58 346.796875 Z M 58 28.046875 " clip-rule="nonzero"/></clipPath></defs><rect x="-37.5" width="450" fill="#ffffff" y="-37.499999" height="449.999989" fill-opacity="1"/><rect x="-37.5" width="450" fill="#ffffff" y="-37.499999" height="449.999989" fill-opacity="1"/><g clip-path="url(#ae84ce2cbb)"><g transform="matrix(1, 0, 0, 1, 91, 139)"><g clip-path="url(#bd77a4c279)"><g clip-path="url(#465767e450)"><path fill="#040606" d="M 0.421875 0.515625 L 194.699219 0.515625 L 194.699219 164.117188 L 0.421875 164.117188 Z M 0.421875 0.515625 " fill-opacity="1" fill-rule="nonzero"/></g></g></g></g><g clip-path="url(#28dda6ea13)"><g clip-path="url(#bca8a55920)"><g transform="matrix(1, 0, 0, 1, 90, 71)"><g clip-path="url(#c9edb6fa51)"><g clip-path="url(#e10b97f946)"><g clip-path="url(#7a3570c977)"><path fill="#040606" d="M 0.292969 0.242188 L 194.886719 0.242188 L 194.886719 145.058594 L 0.292969 145.058594 Z M 0.292969 0.242188 " fill-opacity="1" fill-rule="nonzero"/></g></g></g></g></g></g><g clip-path="url(#fecd8f110b)"><g clip-path="url(#70dd811f61)"><g transform="matrix(1, 0, 0, 1, 151, 288)"><g clip-path="url(#798f285544)"><g clip-path="url(#d41a9b078a)"><g clip-path="url(#6fa87eb549)"><path fill="#040606" d="M 0.140625 0.0898438 L 67.257812 0.0898438 L 67.257812 43.921875 L 0.140625 43.921875 Z M 0.140625 0.0898438 " fill-opacity="1" fill-rule="nonzero"/></g></g></g></g></g></g><g clip-path="url(#cd4aa29bf3)"><g clip-path="url(#7b5df15feb)"><g transform="matrix(1, 0, 0, 1, 75, 259)"><g clip-path="url(#9026f086c5)"><g clip-path="url(#cc5e56b838)"><g clip-path="url(#8e93cbbcc4)"><path fill="#040606" d="M 0.964844 0.285156 L 36.597656 0.285156 L 36.597656 44.128906 L 0.964844 44.128906 Z M 0.964844 0.285156 " fill-opacity="1" fill-rule="nonzero"/></g></g></g></g></g></g><g clip-path="url(#93ebb59ff3)"><g clip-path="url(#6bf70b1b9c)"><g transform="matrix(1, 0, 0, 1, 268, 259)"><g clip-path="url(#9676d764d5)"><g clip-path="url(#a8e81027b5)"><g clip-path="url(#7e7e5db5cb)"><path fill="#040606" d="M 0.0195312 0.285156 L 31.324219 0.285156 L 31.324219 38.808594 L 0.0195312 38.808594 Z M 0.0195312 0.285156 " fill-opacity="1" fill-rule="nonzero"/></g></g></g></g></g></g><g clip-path="url(#6fe5fe5a79)"><g clip-path="url(#906d35bbd1)"><g transform="matrix(1, 0, 0, 1, 170, 37)"><g clip-path="url(#c0e017d495)"><g clip-path="url(#7dc336b3ca)"><g clip-path="url(#0c823e1f32)"><path fill="#040606" d="M 0.8125 0.5 L 36.441406 0.5 L 36.441406 44.339844 L 0.8125 44.339844 Z M 0.8125 0.5 " fill-opacity="1" fill-rule="nonzero"/></g></g></g></g></g></g><g clip-path="url(#a9c95cc08e)"><path fill="#ffffff" d="M 81.234375 164.570312 L 81.234375 244.90625 C 81.234375 250.753906 79.84375 256.628906 77.230469 261.875 L 59.269531 297.792969 C 58.089844 300.148438 58.214844 302.949219 59.601562 305.183594 C 60.980469 307.414062 63.421875 308.789062 66.050781 308.789062 L 142.636719 308.789062 C 146.269531 330.28125 164.976562 346.730469 187.496094 346.730469 C 199.605469 346.730469 211.046875 342.019531 219.761719 333.394531 C 226.503906 326.574219 230.816406 318.023438 232.367188 308.789062 L 308.933594 308.789062 C 311.570312 308.789062 314.015625 307.414062 315.390625 305.183594 C 316.777344 302.949219 316.902344 300.148438 315.722656 297.792969 L 297.765625 261.875 C 295.148438 256.628906 293.761719 250.753906 293.761719 244.90625 L 293.761719 164.570312 C 293.761719 136.210938 282.703125 109.535156 262.609375 89.457031 C 249.980469 76.8125 234.488281 67.640625 217.382812 62.585938 C 217.578125 61.171875 217.851562 59.769531 217.851562 58.308594 C 217.851562 41.574219 204.242188 27.953125 187.496094 27.953125 C 170.75 27.953125 157.140625 41.574219 157.140625 58.308594 C 157.140625 59.78125 157.414062 61.183594 157.613281 62.609375 C 112.914062 75.734375 81.234375 117.371094 81.234375 164.570312 Z M 209.027344 322.671875 C 203.238281 328.398438 195.578125 331.558594 187.496094 331.558594 C 173.378906 331.558594 161.480469 321.867188 158.09375 308.789062 L 216.910156 308.789062 C 215.570312 313.984375 212.882812 318.765625 209.027344 322.671875 Z M 187.496094 43.136719 C 195.863281 43.136719 202.679688 49.941406 202.679688 58.308594 C 202.679688 58.667969 202.667969 59.027344 202.644531 59.386719 C 201.726562 59.25 200.808594 59.199219 199.902344 59.089844 C 199.0625 58.988281 198.230469 58.902344 197.398438 58.828125 C 194.089844 58.519531 190.78125 58.308594 187.496094 58.308594 C 184.199219 58.308594 180.878906 58.519531 177.566406 58.828125 C 176.761719 58.902344 175.957031 58.988281 175.152344 59.089844 C 174.222656 59.1875 173.28125 59.25 172.351562 59.386719 C 172.324219 59.027344 172.3125 58.667969 172.3125 58.308594 C 172.3125 49.941406 179.128906 43.136719 187.496094 43.136719 Z M 168.457031 75.460938 C 177.941406 73.503906 187.546875 73.019531 197.027344 73.988281 C 200.203125 74.324219 203.363281 74.804688 206.511719 75.449219 C 223.753906 79.179688 239.433594 87.734375 251.878906 100.179688 C 269.09375 117.394531 278.578125 140.265625 278.578125 164.570312 L 278.578125 244.90625 C 278.578125 253.109375 280.523438 261.328125 284.179688 268.664062 L 296.660156 293.605469 L 78.332031 293.605469 L 90.816406 268.664062 C 94.472656 261.328125 96.417969 253.109375 96.417969 244.90625 L 96.417969 164.570312 C 96.417969 121.808594 126.734375 84.324219 168.457031 75.460938 " fill-opacity="1" fill-rule="nonzero"/></g></svg>