<svg xmlns="http://www.w3.org/2000/svg" xmlns:xlink="http://www.w3.org/1999/xlink" width="500" zoomAndPan="magnify" viewBox="0 0 375 374.999991" height="500" preserveAspectRatio="xMidYMid meet" version="1.0"><defs><clipPath id="e6a9f7ddbf"><path d="M 37.5 170 L 174 170 L 174 339.96875 L 37.5 339.96875 Z M 37.5 170 " clip-rule="nonzero"/></clipPath><clipPath id="1fee9e3143"><path d="M 37.5 34.71875 L 174 34.71875 L 174 137 L 37.5 137 Z M 37.5 34.71875 " clip-rule="nonzero"/></clipPath><clipPath id="39b5e8b0c7"><path d="M 207 238 L 342.75 238 L 342.75 339.96875 L 207 339.96875 Z M 207 238 " clip-rule="nonzero"/></clipPath><clipPath id="d215a99c3d"><path d="M 207 34.71875 L 342.75 34.71875 L 342.75 205 L 207 205 Z M 207 34.71875 " clip-rule="nonzero"/></clipPath><clipPath id="1da0a71597"><path d="M 37.5 170 L 174 170 L 174 339.96875 L 37.5 339.96875 Z M 37.5 170 " clip-rule="nonzero"/></clipPath><clipPath id="fb63abb6b8"><path d="M 37.5 34.71875 L 174 34.71875 L 174 137 L 37.5 137 Z M 37.5 34.71875 " clip-rule="nonzero"/></clipPath><clipPath id="2a52272056"><path d="M 207 238 L 342.75 238 L 342.75 339.96875 L 207 339.96875 Z M 207 238 " clip-rule="nonzero"/></clipPath><clipPath id="61c2ec58c0"><path d="M 207 34.71875 L 342.75 34.71875 L 342.75 205 L 207 205 Z M 207 34.71875 " clip-rule="nonzero"/></clipPath></defs><rect x="-37.5" width="450" fill="#ffffff" y="-37.499999" height="449.999989" fill-opacity="1"/><rect x="-37.5" width="450" fill="#ffffff" y="-37.499999" height="449.999989" fill-opacity="1"/><g clip-path="url(#e6a9f7ddbf)"><path fill="#000000" d="M 54.457031 170.382812 L 156.207031 170.382812 C 156.765625 170.382812 157.316406 170.410156 157.871094 170.464844 C 158.421875 170.519531 158.972656 170.601562 159.515625 170.710938 C 160.0625 170.816406 160.597656 170.953125 161.132812 171.113281 C 161.664062 171.273438 162.183594 171.460938 162.699219 171.675781 C 163.210938 171.886719 163.710938 172.125 164.203125 172.386719 C 164.691406 172.648438 165.167969 172.933594 165.628906 173.242188 C 166.089844 173.550781 166.539062 173.882812 166.964844 174.234375 C 167.394531 174.585938 167.808594 174.957031 168.199219 175.351562 C 168.59375 175.742188 168.964844 176.15625 169.316406 176.585938 C 169.667969 177.011719 170 177.457031 170.308594 177.921875 C 170.617188 178.382812 170.902344 178.859375 171.164062 179.347656 C 171.425781 179.839844 171.664062 180.339844 171.875 180.851562 C 172.089844 181.367188 172.273438 181.886719 172.4375 182.417969 C 172.597656 182.949219 172.734375 183.488281 172.839844 184.035156 C 172.949219 184.578125 173.03125 185.128906 173.085938 185.679688 C 173.140625 186.234375 173.167969 186.785156 173.167969 187.34375 L 173.167969 323.007812 C 173.167969 323.5625 173.140625 324.117188 173.085938 324.671875 C 173.03125 325.222656 172.949219 325.773438 172.839844 326.316406 C 172.734375 326.863281 172.597656 327.398438 172.4375 327.929688 C 172.273438 328.464844 172.089844 328.984375 171.875 329.5 C 171.664062 330.011719 171.425781 330.511719 171.164062 331.003906 C 170.902344 331.492188 170.617188 331.96875 170.308594 332.429688 C 170 332.890625 169.667969 333.335938 169.316406 333.765625 C 168.964844 334.195312 168.59375 334.609375 168.199219 335 C 167.808594 335.394531 167.394531 335.765625 166.964844 336.117188 C 166.539062 336.46875 166.089844 336.800781 165.628906 337.109375 C 165.167969 337.417969 164.691406 337.703125 164.203125 337.964844 C 163.710938 338.226562 163.210938 338.464844 162.699219 338.675781 C 162.183594 338.890625 161.664062 339.074219 161.132812 339.238281 C 160.597656 339.398438 160.0625 339.53125 159.515625 339.640625 C 158.972656 339.75 158.421875 339.832031 157.871094 339.886719 C 157.316406 339.941406 156.765625 339.96875 156.207031 339.96875 L 54.457031 339.96875 C 53.902344 339.96875 53.347656 339.941406 52.796875 339.886719 C 52.242188 339.832031 51.695312 339.75 51.148438 339.640625 C 50.605469 339.53125 50.066406 339.398438 49.535156 339.238281 C 49.003906 339.074219 48.480469 338.890625 47.96875 338.675781 C 47.457031 338.464844 46.953125 338.226562 46.464844 337.964844 C 45.972656 337.703125 45.5 337.417969 45.035156 337.109375 C 44.574219 336.800781 44.128906 336.46875 43.699219 336.117188 C 43.269531 335.765625 42.859375 335.394531 42.46875 335 C 42.074219 334.609375 41.703125 334.195312 41.347656 333.765625 C 40.996094 333.335938 40.667969 332.890625 40.359375 332.429688 C 40.050781 331.96875 39.765625 331.492188 39.503906 331.003906 C 39.242188 330.511719 39.003906 330.011719 38.789062 329.5 C 38.578125 328.984375 38.390625 328.464844 38.230469 327.933594 C 38.070312 327.398438 37.933594 326.863281 37.824219 326.316406 C 37.71875 325.773438 37.636719 325.222656 37.582031 324.671875 C 37.527344 324.117188 37.5 323.5625 37.5 323.007812 L 37.5 187.34375 C 37.5 186.785156 37.527344 186.234375 37.582031 185.679688 C 37.636719 185.128906 37.71875 184.578125 37.824219 184.035156 C 37.933594 183.488281 38.070312 182.949219 38.230469 182.417969 C 38.390625 181.886719 38.578125 181.367188 38.789062 180.851562 C 39.003906 180.339844 39.242188 179.839844 39.503906 179.347656 C 39.765625 178.859375 40.050781 178.382812 40.359375 177.921875 C 40.667969 177.457031 40.996094 177.011719 41.347656 176.585938 C 41.703125 176.15625 42.074219 175.742188 42.46875 175.351562 C 42.859375 174.957031 43.269531 174.585938 43.699219 174.234375 C 44.128906 173.882812 44.574219 173.550781 45.035156 173.242188 C 45.5 172.933594 45.972656 172.648438 46.464844 172.386719 C 46.953125 172.125 47.457031 171.886719 47.96875 171.675781 C 48.480469 171.460938 49.003906 171.273438 49.535156 171.113281 C 50.066406 170.953125 50.605469 170.816406 51.148438 170.710938 C 51.695312 170.601562 52.242188 170.519531 52.796875 170.464844 C 53.347656 170.410156 53.902344 170.382812 54.457031 170.382812 Z M 54.457031 170.382812 " fill-opacity="1" fill-rule="nonzero"/></g><g clip-path="url(#1fee9e3143)"><path fill="#000000" d="M 54.457031 34.71875 L 156.207031 34.71875 C 156.765625 34.71875 157.316406 34.746094 157.871094 34.800781 C 158.421875 34.851562 158.972656 34.933594 159.515625 35.042969 C 160.0625 35.152344 160.597656 35.285156 161.132812 35.449219 C 161.664062 35.609375 162.183594 35.796875 162.699219 36.007812 C 163.210938 36.21875 163.710938 36.457031 164.203125 36.71875 C 164.691406 36.980469 165.167969 37.265625 165.628906 37.574219 C 166.089844 37.882812 166.539062 38.214844 166.964844 38.566406 C 167.394531 38.917969 167.808594 39.292969 168.199219 39.683594 C 168.59375 40.078125 168.964844 40.488281 169.316406 40.917969 C 169.667969 41.347656 170 41.792969 170.308594 42.253906 C 170.617188 42.714844 170.902344 43.191406 171.164062 43.679688 C 171.425781 44.171875 171.664062 44.671875 171.875 45.1875 C 172.089844 45.699219 172.273438 46.222656 172.4375 46.753906 C 172.597656 47.285156 172.734375 47.824219 172.839844 48.367188 C 172.949219 48.910156 173.03125 49.460938 173.085938 50.011719 C 173.140625 50.566406 173.167969 51.121094 173.167969 51.675781 L 173.167969 119.507812 C 173.167969 120.0625 173.140625 120.617188 173.085938 121.171875 C 173.03125 121.722656 172.949219 122.273438 172.839844 122.816406 C 172.734375 123.363281 172.597656 123.898438 172.4375 124.433594 C 172.273438 124.964844 172.089844 125.484375 171.875 126 C 171.664062 126.511719 171.425781 127.011719 171.164062 127.503906 C 170.902344 127.992188 170.617188 128.46875 170.308594 128.929688 C 170 129.390625 169.667969 129.835938 169.316406 130.265625 C 168.964844 130.695312 168.59375 131.109375 168.199219 131.5 C 167.808594 131.894531 167.394531 132.265625 166.964844 132.617188 C 166.539062 132.96875 166.089844 133.300781 165.628906 133.609375 C 165.167969 133.917969 164.691406 134.203125 164.203125 134.464844 C 163.710938 134.726562 163.210938 134.964844 162.699219 135.175781 C 162.183594 135.390625 161.664062 135.574219 161.132812 135.738281 C 160.597656 135.898438 160.0625 136.03125 159.515625 136.140625 C 158.972656 136.25 158.421875 136.332031 157.871094 136.386719 C 157.316406 136.441406 156.765625 136.46875 156.207031 136.46875 L 54.457031 136.46875 C 53.902344 136.46875 53.347656 136.441406 52.796875 136.386719 C 52.242188 136.332031 51.695312 136.25 51.148438 136.140625 C 50.605469 136.03125 50.066406 135.898438 49.535156 135.738281 C 49.003906 135.574219 48.480469 135.390625 47.96875 135.175781 C 47.457031 134.964844 46.953125 134.726562 46.464844 134.464844 C 45.972656 134.203125 45.5 133.917969 45.035156 133.609375 C 44.574219 133.300781 44.128906 132.96875 43.699219 132.617188 C 43.269531 132.265625 42.859375 131.894531 42.46875 131.5 C 42.074219 131.109375 41.703125 130.695312 41.347656 130.265625 C 40.996094 129.835938 40.667969 129.390625 40.359375 128.929688 C 40.050781 128.46875 39.765625 127.992188 39.503906 127.503906 C 39.242188 127.011719 39.003906 126.511719 38.789062 126 C 38.578125 125.484375 38.390625 124.964844 38.230469 124.433594 C 38.070312 123.898438 37.933594 123.363281 37.824219 122.816406 C 37.71875 122.273438 37.636719 121.722656 37.582031 121.171875 C 37.527344 120.617188 37.5 120.0625 37.5 119.507812 L 37.5 51.675781 C 37.5 51.121094 37.527344 50.566406 37.582031 50.011719 C 37.636719 49.460938 37.71875 48.910156 37.824219 48.367188 C 37.933594 47.824219 38.070312 47.285156 38.230469 46.753906 C 38.390625 46.222656 38.578125 45.699219 38.789062 45.1875 C 39.003906 44.671875 39.242188 44.171875 39.503906 43.679688 C 39.765625 43.191406 40.050781 42.714844 40.359375 42.253906 C 40.667969 41.792969 40.996094 41.347656 41.347656 40.917969 C 41.703125 40.488281 42.074219 40.078125 42.46875 39.683594 C 42.859375 39.292969 43.269531 38.917969 43.699219 38.566406 C 44.128906 38.214844 44.574219 37.882812 45.035156 37.574219 C 45.5 37.265625 45.972656 36.980469 46.464844 36.71875 C 46.953125 36.457031 47.457031 36.21875 47.96875 36.007812 C 48.480469 35.796875 49.003906 35.609375 49.535156 35.449219 C 50.066406 35.285156 50.605469 35.152344 51.148438 35.042969 C 51.695312 34.933594 52.242188 34.851562 52.796875 34.800781 C 53.347656 34.746094 53.902344 34.71875 54.457031 34.71875 Z M 54.457031 34.71875 " fill-opacity="1" fill-rule="nonzero"/></g><g clip-path="url(#39b5e8b0c7)"><path fill="#000000" d="M 224.042969 238.21875 L 325.792969 238.21875 C 326.347656 238.21875 326.902344 238.246094 327.453125 238.300781 C 328.007812 238.351562 328.554688 238.433594 329.101562 238.542969 C 329.644531 238.652344 330.183594 238.785156 330.714844 238.949219 C 331.246094 239.109375 331.769531 239.296875 332.28125 239.507812 C 332.792969 239.71875 333.296875 239.957031 333.785156 240.21875 C 334.277344 240.480469 334.75 240.765625 335.214844 241.074219 C 335.675781 241.382812 336.121094 241.714844 336.550781 242.066406 C 336.980469 242.417969 337.390625 242.792969 337.78125 243.183594 C 338.175781 243.578125 338.546875 243.988281 338.902344 244.417969 C 339.253906 244.847656 339.582031 245.292969 339.890625 245.753906 C 340.199219 246.214844 340.484375 246.691406 340.746094 247.179688 C 341.007812 247.671875 341.246094 248.171875 341.460938 248.6875 C 341.671875 249.199219 341.859375 249.722656 342.019531 250.253906 C 342.179688 250.785156 342.316406 251.324219 342.425781 251.867188 C 342.53125 252.410156 342.613281 252.960938 342.667969 253.511719 C 342.722656 254.066406 342.75 254.621094 342.75 255.175781 L 342.75 323.007812 C 342.75 323.5625 342.722656 324.117188 342.667969 324.671875 C 342.613281 325.222656 342.53125 325.773438 342.425781 326.316406 C 342.316406 326.863281 342.179688 327.398438 342.019531 327.929688 C 341.859375 328.464844 341.671875 328.984375 341.460938 329.5 C 341.246094 330.011719 341.007812 330.511719 340.746094 331.003906 C 340.484375 331.492188 340.199219 331.96875 339.890625 332.429688 C 339.582031 332.890625 339.253906 333.335938 338.902344 333.765625 C 338.546875 334.195312 338.175781 334.609375 337.78125 335 C 337.390625 335.394531 336.980469 335.765625 336.550781 336.117188 C 336.121094 336.46875 335.675781 336.800781 335.214844 337.109375 C 334.75 337.417969 334.277344 337.703125 333.785156 337.964844 C 333.296875 338.226562 332.792969 338.464844 332.28125 338.675781 C 331.769531 338.890625 331.246094 339.074219 330.714844 339.238281 C 330.183594 339.398438 329.644531 339.53125 329.101562 339.640625 C 328.554688 339.75 328.007812 339.832031 327.453125 339.886719 C 326.902344 339.941406 326.347656 339.96875 325.792969 339.96875 L 224.042969 339.96875 C 223.484375 339.96875 222.933594 339.941406 222.378906 339.886719 C 221.828125 339.832031 221.277344 339.75 220.734375 339.640625 C 220.1875 339.53125 219.648438 339.398438 219.117188 339.238281 C 218.585938 339.074219 218.066406 338.890625 217.550781 338.675781 C 217.039062 338.464844 216.539062 338.226562 216.046875 337.964844 C 215.558594 337.703125 215.082031 337.417969 214.621094 337.109375 C 214.160156 336.800781 213.710938 336.46875 213.285156 336.117188 C 212.855469 335.765625 212.441406 335.394531 212.050781 335 C 211.65625 334.609375 211.285156 334.195312 210.933594 333.765625 C 210.582031 333.335938 210.25 332.890625 209.941406 332.429688 C 209.632812 331.96875 209.347656 331.492188 209.085938 331.003906 C 208.824219 330.511719 208.585938 330.011719 208.375 329.5 C 208.160156 328.984375 207.976562 328.464844 207.8125 327.933594 C 207.652344 327.398438 207.515625 326.863281 207.410156 326.316406 C 207.300781 325.773438 207.21875 325.222656 207.164062 324.671875 C 207.109375 324.117188 207.082031 323.5625 207.082031 323.007812 L 207.082031 255.175781 C 207.082031 254.621094 207.109375 254.066406 207.164062 253.511719 C 207.21875 252.960938 207.300781 252.410156 207.410156 251.867188 C 207.515625 251.324219 207.652344 250.785156 207.8125 250.253906 C 207.976562 249.722656 208.160156 249.199219 208.375 248.6875 C 208.585938 248.171875 208.824219 247.671875 209.085938 247.179688 C 209.347656 246.691406 209.632812 246.214844 209.941406 245.753906 C 210.25 245.292969 210.582031 244.847656 210.933594 244.417969 C 211.285156 243.988281 211.65625 243.578125 212.050781 243.183594 C 212.441406 242.792969 212.855469 242.417969 213.285156 242.066406 C 213.710938 241.714844 214.160156 241.382812 214.621094 241.074219 C 215.082031 240.765625 215.558594 240.480469 216.046875 240.21875 C 216.539062 239.957031 217.039062 239.71875 217.550781 239.507812 C 218.066406 239.296875 218.585938 239.109375 219.117188 238.949219 C 219.648438 238.785156 220.1875 238.652344 220.734375 238.542969 C 221.277344 238.433594 221.828125 238.351562 222.378906 238.300781 C 222.933594 238.246094 223.484375 238.21875 224.042969 238.21875 Z M 224.042969 238.21875 " fill-opacity="1" fill-rule="nonzero"/></g><g clip-path="url(#d215a99c3d)"><path fill="#000000" d="M 224.042969 34.71875 L 325.792969 34.71875 C 326.347656 34.71875 326.902344 34.746094 327.453125 34.800781 C 328.007812 34.851562 328.554688 34.933594 329.101562 35.042969 C 329.644531 35.152344 330.183594 35.285156 330.714844 35.449219 C 331.246094 35.609375 331.769531 35.796875 332.28125 36.007812 C 332.792969 36.21875 333.296875 36.457031 333.785156 36.71875 C 334.277344 36.980469 334.75 37.265625 335.214844 37.574219 C 335.675781 37.882812 336.121094 38.214844 336.550781 38.566406 C 336.980469 38.917969 337.390625 39.292969 337.78125 39.683594 C 338.175781 40.078125 338.546875 40.488281 338.902344 40.917969 C 339.253906 41.347656 339.582031 41.792969 339.890625 42.253906 C 340.199219 42.714844 340.484375 43.191406 340.746094 43.679688 C 341.007812 44.171875 341.246094 44.671875 341.460938 45.1875 C 341.671875 45.699219 341.859375 46.222656 342.019531 46.753906 C 342.179688 47.285156 342.316406 47.824219 342.425781 48.367188 C 342.53125 48.910156 342.613281 49.460938 342.667969 50.011719 C 342.722656 50.566406 342.75 51.121094 342.75 51.675781 L 342.75 187.34375 C 342.75 187.898438 342.722656 188.453125 342.667969 189.003906 C 342.613281 189.558594 342.53125 190.105469 342.425781 190.652344 C 342.316406 191.195312 342.179688 191.734375 342.019531 192.265625 C 341.859375 192.796875 341.671875 193.320312 341.460938 193.832031 C 341.246094 194.34375 341.007812 194.847656 340.746094 195.335938 C 340.484375 195.828125 340.199219 196.300781 339.890625 196.765625 C 339.582031 197.226562 339.253906 197.671875 338.902344 198.101562 C 338.546875 198.53125 338.175781 198.941406 337.78125 199.332031 C 337.390625 199.726562 336.980469 200.097656 336.550781 200.453125 C 336.121094 200.804688 335.675781 201.132812 335.214844 201.441406 C 334.75 201.75 334.277344 202.035156 333.785156 202.296875 C 333.296875 202.558594 332.792969 202.796875 332.28125 203.007812 C 331.769531 203.222656 331.246094 203.410156 330.714844 203.570312 C 330.183594 203.730469 329.644531 203.867188 329.101562 203.976562 C 328.554688 204.082031 328.007812 204.164062 327.453125 204.21875 C 326.902344 204.273438 326.347656 204.300781 325.792969 204.300781 L 224.042969 204.300781 C 223.484375 204.300781 222.933594 204.273438 222.378906 204.21875 C 221.828125 204.164062 221.277344 204.082031 220.734375 203.976562 C 220.1875 203.867188 219.648438 203.730469 219.117188 203.570312 C 218.585938 203.410156 218.066406 203.222656 217.550781 203.007812 C 217.039062 202.796875 216.539062 202.558594 216.046875 202.296875 C 215.558594 202.035156 215.082031 201.75 214.621094 201.441406 C 214.160156 201.132812 213.710938 200.804688 213.285156 200.453125 C 212.855469 200.097656 212.441406 199.726562 212.050781 199.332031 C 211.65625 198.941406 211.285156 198.53125 210.933594 198.101562 C 210.582031 197.671875 210.25 197.226562 209.941406 196.765625 C 209.632812 196.300781 209.347656 195.828125 209.085938 195.335938 C 208.824219 194.847656 208.585938 194.34375 208.375 193.832031 C 208.160156 193.320312 207.976562 192.796875 207.8125 192.265625 C 207.652344 191.734375 207.515625 191.195312 207.410156 190.652344 C 207.300781 190.105469 207.21875 189.558594 207.164062 189.003906 C 207.109375 188.453125 207.082031 187.898438 207.082031 187.34375 L 207.082031 51.675781 C 207.082031 51.121094 207.109375 50.566406 207.164062 50.011719 C 207.21875 49.460938 207.300781 48.910156 207.410156 48.367188 C 207.515625 47.824219 207.652344 47.285156 207.8125 46.753906 C 207.976562 46.222656 208.160156 45.699219 208.375 45.1875 C 208.585938 44.671875 208.824219 44.171875 209.085938 43.679688 C 209.347656 43.191406 209.632812 42.714844 209.941406 42.253906 C 210.25 41.792969 210.582031 41.347656 210.933594 40.917969 C 211.285156 40.488281 211.65625 40.078125 212.050781 39.683594 C 212.441406 39.292969 212.855469 38.917969 213.285156 38.566406 C 213.710938 38.214844 214.160156 37.882812 214.621094 37.574219 C 215.082031 37.265625 215.558594 36.980469 216.046875 36.71875 C 216.539062 36.457031 217.039062 36.21875 217.550781 36.007812 C 218.066406 35.796875 218.585938 35.609375 219.117188 35.449219 C 219.648438 35.285156 220.1875 35.152344 220.734375 35.042969 C 221.277344 34.933594 221.828125 34.851562 222.378906 34.800781 C 222.933594 34.746094 223.484375 34.71875 224.042969 34.71875 Z M 224.042969 34.71875 " fill-opacity="1" fill-rule="nonzero"/></g><g clip-path="url(#1da0a71597)"><path fill="#ffffff" d="M 156.328125 170.519531 L 54.476562 170.519531 C 45.140625 170.519531 37.5 178.160156 37.5 187.496094 L 37.5 323.296875 C 37.5 332.632812 45.140625 340.273438 54.476562 340.273438 L 156.328125 340.273438 C 165.664062 340.273438 173.300781 332.632812 173.300781 323.296875 L 173.300781 187.496094 C 173.300781 178.160156 165.664062 170.519531 156.328125 170.519531 Z M 161.984375 323.296875 C 161.984375 326.410156 159.4375 328.957031 156.328125 328.957031 L 54.476562 328.957031 C 51.363281 328.957031 48.816406 326.410156 48.816406 323.296875 L 48.816406 187.496094 C 48.816406 184.382812 51.363281 181.835938 54.476562 181.835938 L 156.328125 181.835938 C 159.4375 181.835938 161.984375 184.382812 161.984375 187.496094 Z M 161.984375 323.296875 " fill-opacity="1" fill-rule="nonzero"/></g><g clip-path="url(#fb63abb6b8)"><path fill="#ffffff" d="M 156.328125 34.71875 L 54.476562 34.71875 C 45.140625 34.71875 37.5 42.355469 37.5 51.691406 L 37.5 119.59375 C 37.5 128.929688 45.140625 136.570312 54.476562 136.570312 L 156.328125 136.570312 C 165.664062 136.570312 173.300781 128.929688 173.300781 119.59375 L 173.300781 51.691406 C 173.300781 42.355469 165.664062 34.71875 156.328125 34.71875 Z M 161.984375 119.59375 C 161.984375 122.707031 159.4375 125.253906 156.328125 125.253906 L 54.476562 125.253906 C 51.363281 125.253906 48.816406 122.707031 48.816406 119.59375 L 48.816406 51.691406 C 48.816406 48.582031 51.363281 46.035156 54.476562 46.035156 L 156.328125 46.035156 C 159.4375 46.035156 161.984375 48.582031 161.984375 51.691406 Z M 161.984375 119.59375 " fill-opacity="1" fill-rule="nonzero"/></g><g clip-path="url(#2a52272056)"><path fill="#ffffff" d="M 326.078125 238.421875 L 224.226562 238.421875 C 214.890625 238.421875 207.253906 246.058594 207.253906 255.394531 L 207.253906 323.296875 C 207.253906 332.632812 214.890625 340.273438 224.226562 340.273438 L 326.078125 340.273438 C 335.414062 340.273438 343.054688 332.632812 343.054688 323.296875 L 343.054688 255.394531 C 343.054688 246.058594 335.414062 238.421875 326.078125 238.421875 Z M 331.738281 323.296875 C 331.738281 326.410156 329.191406 328.957031 326.078125 328.957031 L 224.226562 328.957031 C 221.117188 328.957031 218.570312 326.410156 218.570312 323.296875 L 218.570312 255.394531 C 218.570312 252.285156 221.117188 249.738281 224.226562 249.738281 L 326.078125 249.738281 C 329.191406 249.738281 331.738281 252.285156 331.738281 255.394531 Z M 331.738281 323.296875 " fill-opacity="1" fill-rule="nonzero"/></g><g clip-path="url(#61c2ec58c0)"><path fill="#ffffff" d="M 326.078125 34.71875 L 224.226562 34.71875 C 214.890625 34.71875 207.253906 42.355469 207.253906 51.691406 L 207.253906 187.496094 C 207.253906 196.832031 214.890625 204.46875 224.226562 204.46875 L 326.078125 204.46875 C 335.414062 204.46875 343.054688 196.832031 343.054688 187.496094 L 343.054688 51.691406 C 343.054688 42.355469 335.414062 34.71875 326.078125 34.71875 Z M 331.738281 187.496094 C 331.738281 190.605469 329.191406 193.152344 326.078125 193.152344 L 224.226562 193.152344 C 221.117188 193.152344 218.570312 190.605469 218.570312 187.496094 L 218.570312 51.691406 C 218.570312 48.582031 221.117188 46.035156 224.226562 46.035156 L 326.078125 46.035156 C 329.191406 46.035156 331.738281 48.582031 331.738281 51.691406 Z M 331.738281 187.496094 " fill-opacity="1" fill-rule="nonzero"/></g></svg>