<svg xmlns="http://www.w3.org/2000/svg" xmlns:xlink="http://www.w3.org/1999/xlink" width="500" zoomAndPan="magnify" viewBox="0 0 375 374.999991" height="500" preserveAspectRatio="xMidYMid meet" version="1.0"><defs><clipPath id="d9939d95af"><path d="M 27.636719 41 L 347.136719 41 L 347.136719 334 L 27.636719 334 Z M 27.636719 41 " clip-rule="nonzero"/></clipPath></defs><rect x="-37.5" width="450" fill="#ffffff" y="-37.499999" height="449.999989" fill-opacity="1"/><rect x="-37.5" width="450" fill="#ffffff" y="-37.499999" height="449.999989" fill-opacity="1"/><g clip-path="url(#d9939d95af)"><path fill="#ffffff" d="M 304.710938 41.9375 L 70.378906 41.9375 C 46.75 41.9375 27.535156 61.148438 27.535156 84.78125 L 27.535156 224.1875 C 27.535156 247.820312 46.75 267.03125 70.378906 267.03125 L 144.304688 267.03125 C 145.84375 267.03125 147.085938 268.273438 147.085938 269.8125 L 147.085938 322.585938 C 147.085938 327.003906 149.714844 330.976562 153.785156 332.664062 C 155.175781 333.261719 156.566406 333.507812 158.007812 333.507812 C 160.835938 333.507812 163.617188 332.417969 165.703125 330.332031 L 229 267.777344 C 229.546875 267.28125 230.242188 266.984375 230.988281 266.984375 L 304.761719 266.984375 C 328.34375 266.984375 347.507812 247.769531 347.507812 224.136719 L 347.507812 84.679688 C 347.507812 61.097656 328.34375 41.9375 304.761719 41.9375 Z M 337.527344 224.136719 C 337.527344 242.257812 322.78125 257.054688 304.710938 257.054688 L 230.9375 257.054688 C 227.5625 257.054688 224.382812 258.34375 222 260.726562 L 158.703125 323.28125 C 158.703125 323.28125 158.203125 323.777344 157.558594 323.53125 C 156.964844 323.28125 156.964844 322.785156 156.964844 322.585938 L 156.964844 269.8125 C 156.964844 262.8125 151.253906 257.101562 144.253906 257.101562 L 70.332031 257.101562 C 52.210938 257.101562 37.414062 242.359375 37.414062 224.1875 L 37.414062 84.78125 C 37.414062 66.660156 52.160156 51.867188 70.332031 51.867188 L 304.660156 51.867188 C 322.78125 51.867188 337.476562 66.609375 337.476562 84.679688 L 337.476562 224.136719 Z M 337.527344 224.136719 " fill-opacity="1" fill-rule="nonzero"/></g></svg>